<?xml version="1.0" encoding="UTF-8" standalone="no"?>
<!DOCTYPE svg PUBLIC "-//W3C//DTD SVG 1.1//EN"
 "http://www.w3.org/Graphics/SVG/1.1/DTD/svg11.dtd">
<!-- Generated by graphviz version 2.42.4 (0)
 -->
<!-- Title: G Pages: 1 -->
<svg width="439pt" height="844pt"
 viewBox="0.00 0.00 438.59 844.00" xmlns="http://www.w3.org/2000/svg" xmlns:xlink="http://www.w3.org/1999/xlink">
<g id="graph0" class="graph" transform="scale(1 1) rotate(0) translate(4 840)">
<title>G</title>
<polygon fill="white" stroke="transparent" points="-4,4 -4,-840 434.59,-840 434.59,4 -4,4"/>
<!-- A -->
<g id="node1" class="node">
<title>A</title>
<path fill="#f7f9fb" stroke="#52606d" d="M391,-836C391,-836 279,-836 279,-836 273,-836 267,-830 267,-824 267,-824 267,-812 267,-812 267,-806 273,-800 279,-800 279,-800 391,-800 391,-800 397,-800 403,-806 403,-812 403,-812 403,-824 403,-824 403,-830 397,-836 391,-836"/>
<text text-anchor="middle" x="335" y="-814.3" font-family="Arial" font-size="14.00">Create appointment</text>
</g>
<!-- B -->
<g id="node2" class="node">
<title>B</title>
<path fill="#f7f9fb" stroke="#52606d" d="M366.5,-763C366.5,-763 303.5,-763 303.5,-763 297.5,-763 291.5,-757 291.5,-751 291.5,-751 291.5,-739 291.5,-739 291.5,-733 297.5,-727 303.5,-727 303.5,-727 366.5,-727 366.5,-727 372.5,-727 378.5,-733 378.5,-739 378.5,-739 378.5,-751 378.5,-751 378.5,-757 372.5,-763 366.5,-763"/>
<text text-anchor="middle" x="335" y="-741.3" font-family="Arial" font-size="14.00">Find patient</text>
</g>
<!-- A&#45;&gt;B -->
<g id="edge1" class="edge">
<title>A&#45;&gt;B</title>
<path fill="none" stroke="#52606d" d="M335,-799.81C335,-791.79 335,-782.05 335,-773.07"/>
<polygon fill="#52606d" stroke="#52606d" points="338.5,-773.03 335,-763.03 331.5,-773.03 338.5,-773.03"/>
</g>
<!-- C -->
<g id="node3" class="node">
<title>C</title>
<path fill="#f7f9fb" stroke="#52606d" d="M323.21,-687.78C323.21,-687.78 251.11,-674.22 251.11,-674.22 245.21,-673.11 245.21,-670.89 251.11,-669.78 251.11,-669.78 323.21,-656.22 323.21,-656.22 329.1,-655.11 340.9,-655.11 346.79,-656.22 346.79,-656.22 418.89,-669.78 418.89,-669.78 424.79,-670.89 424.79,-673.11 418.89,-674.22 418.89,-674.22 346.79,-687.78 346.79,-687.78 340.9,-688.89 329.1,-688.89 323.21,-687.78"/>
<text text-anchor="middle" x="335" y="-668.3" font-family="Arial" font-size="14.00">Patient exists?</text>
</g>
<!-- B&#45;&gt;C -->
<g id="edge2" class="edge">
<title>B&#45;&gt;C</title>
<path fill="none" stroke="#52606d" d="M335,-726.81C335,-718.79 335,-709.05 335,-700.07"/>
<polygon fill="#52606d" stroke="#52606d" points="338.5,-700.03 335,-690.03 331.5,-700.03 338.5,-700.03"/>
</g>
<!-- D -->
<g id="node4" class="node">
<title>D</title>
<path fill="#f7f9fb" stroke="#52606d" d="M317,-603C317,-603 257,-603 257,-603 251,-603 245,-597 245,-591 245,-591 245,-579 245,-579 245,-573 251,-567 257,-567 257,-567 317,-567 317,-567 323,-567 329,-573 329,-579 329,-579 329,-591 329,-591 329,-597 323,-603 317,-603"/>
<text text-anchor="middle" x="287" y="-581.3" font-family="Arial" font-size="14.00">Find doctor</text>
</g>
<!-- C&#45;&gt;D -->
<g id="edge3" class="edge">
<title>C&#45;&gt;D</title>
<path fill="none" stroke="#52606d" d="M326.2,-655.41C319.36,-643.3 309.72,-626.24 301.72,-612.06"/>
<polygon fill="#52606d" stroke="#52606d" points="304.7,-610.23 296.74,-603.25 298.61,-613.67 304.7,-610.23"/>
<text text-anchor="middle" x="326.5" y="-624.8" font-family="Times,serif" font-size="14.00">yes</text>
</g>
<!-- X -->
<g id="node14" class="node">
<title>X</title>
<path fill="#f7f9fb" stroke="#52606d" d="M403.5,-269C403.5,-269 298.5,-269 298.5,-269 292.5,-269 286.5,-263 286.5,-257 286.5,-257 286.5,-245 286.5,-245 286.5,-239 292.5,-233 298.5,-233 298.5,-233 403.5,-233 403.5,-233 409.5,-233 415.5,-239 415.5,-245 415.5,-245 415.5,-257 415.5,-257 415.5,-263 409.5,-269 403.5,-269"/>
<text text-anchor="middle" x="351" y="-247.3" font-family="Arial" font-size="14.00">Show error / return</text>
</g>
<!-- C&#45;&gt;X -->
<g id="edge4" class="edge">
<title>C&#45;&gt;X</title>
<path fill="none" stroke="#52606d" d="M345.5,-655.8C355.81,-639.36 370,-612.01 370,-586 370,-586 370,-586 370,-337 370,-317.09 364.97,-295.17 360.09,-278.58"/>
<polygon fill="#52606d" stroke="#52606d" points="363.43,-277.52 357.12,-269.01 356.74,-279.6 363.43,-277.52"/>
<text text-anchor="middle" x="379" y="-464.8" font-family="Times,serif" font-size="14.00">no</text>
</g>
<!-- E -->
<g id="node5" class="node">
<title>E</title>
<path fill="#f7f9fb" stroke="#52606d" d="M236.22,-527.73C236.22,-527.73 166.27,-514.27 166.27,-514.27 160.38,-513.13 160.38,-510.87 166.27,-509.73 166.27,-509.73 236.22,-496.27 236.22,-496.27 242.11,-495.13 253.89,-495.13 259.78,-496.27 259.78,-496.27 329.73,-509.73 329.73,-509.73 335.62,-510.87 335.62,-513.13 329.73,-514.27 329.73,-514.27 259.78,-527.73 259.78,-527.73 253.89,-528.87 242.11,-528.87 236.22,-527.73"/>
<text text-anchor="middle" x="248" y="-508.3" font-family="Arial" font-size="14.00">Doctor exists?</text>
</g>
<!-- D&#45;&gt;E -->
<g id="edge5" class="edge">
<title>D&#45;&gt;E</title>
<path fill="none" stroke="#52606d" d="M277.56,-566.81C272.71,-557.98 266.71,-547.06 261.39,-537.38"/>
<polygon fill="#52606d" stroke="#52606d" points="264.44,-535.66 256.56,-528.58 258.3,-539.03 264.44,-535.66"/>
</g>
<!-- F -->
<g id="node6" class="node">
<title>F</title>
<path fill="#f7f9fb" stroke="#52606d" d="M292,-443C292,-443 158,-443 158,-443 152,-443 146,-437 146,-431 146,-431 146,-419 146,-419 146,-413 152,-407 158,-407 158,-407 292,-407 292,-407 298,-407 304,-413 304,-419 304,-419 304,-431 304,-431 304,-437 298,-443 292,-443"/>
<text text-anchor="middle" x="225" y="-421.3" font-family="Arial" font-size="14.00">Enter date/time + notes</text>
</g>
<!-- E&#45;&gt;F -->
<g id="edge6" class="edge">
<title>E&#45;&gt;F</title>
<path fill="none" stroke="#52606d" d="M243.57,-494.61C240.38,-482.85 236.02,-466.73 232.32,-453.07"/>
<polygon fill="#52606d" stroke="#52606d" points="235.65,-451.95 229.66,-443.21 228.89,-453.78 235.65,-451.95"/>
<text text-anchor="middle" x="250.5" y="-464.8" font-family="Times,serif" font-size="14.00">yes</text>
</g>
<!-- E&#45;&gt;X -->
<g id="edge7" class="edge">
<title>E&#45;&gt;X</title>
<path fill="none" stroke="#52606d" d="M265.8,-497.35C280.78,-484.87 301.55,-465.02 313,-443 340.76,-389.63 348.29,-318.18 350.3,-279.56"/>
<polygon fill="#52606d" stroke="#52606d" points="353.81,-279.28 350.75,-269.14 346.82,-278.98 353.81,-279.28"/>
<text text-anchor="middle" x="346" y="-377.8" font-family="Times,serif" font-size="14.00">no</text>
</g>
<!-- G -->
<g id="node7" class="node">
<title>G</title>
<path fill="#f7f9fb" stroke="#52606d" d="M213.3,-353.34C213.3,-353.34 157.61,-340.66 157.61,-340.66 151.76,-339.33 151.76,-336.67 157.61,-335.34 157.61,-335.34 213.3,-322.66 213.3,-322.66 219.15,-321.33 230.85,-321.33 236.7,-322.66 236.7,-322.66 292.39,-335.34 292.39,-335.34 298.24,-336.67 298.24,-339.33 292.39,-340.66 292.39,-340.66 236.7,-353.34 236.7,-353.34 230.85,-354.67 219.15,-354.67 213.3,-353.34"/>
<text text-anchor="middle" x="225" y="-334.3" font-family="Arial" font-size="14.00">Valid input?</text>
</g>
<!-- F&#45;&gt;G -->
<g id="edge8" class="edge">
<title>F&#45;&gt;G</title>
<path fill="none" stroke="#52606d" d="M225,-406.8C225,-395.16 225,-379.55 225,-366.24"/>
<polygon fill="#52606d" stroke="#52606d" points="228.5,-366.18 225,-356.18 221.5,-366.18 228.5,-366.18"/>
</g>
<!-- H -->
<g id="node8" class="node">
<title>H</title>
<path fill="#f7f9fb" stroke="#52606d" d="M256,-269C256,-269 78,-269 78,-269 72,-269 66,-263 66,-257 66,-257 66,-245 66,-245 66,-239 72,-233 78,-233 78,-233 256,-233 256,-233 262,-233 268,-239 268,-245 268,-245 268,-257 268,-257 268,-263 262,-269 256,-269"/>
<text text-anchor="middle" x="167" y="-247.3" font-family="Arial" font-size="14.00">Create PENDING appointment</text>
</g>
<!-- G&#45;&gt;H -->
<g id="edge9" class="edge">
<title>G&#45;&gt;H</title>
<path fill="none" stroke="#52606d" d="M214.9,-322.19C206.57,-309.98 194.55,-292.37 184.63,-277.84"/>
<polygon fill="#52606d" stroke="#52606d" points="187.31,-275.56 178.79,-269.27 181.53,-279.5 187.31,-275.56"/>
<text text-anchor="middle" x="212.5" y="-290.8" font-family="Times,serif" font-size="14.00">yes</text>
</g>
<!-- G&#45;&gt;X -->
<g id="edge10" class="edge">
<title>G&#45;&gt;X</title>
<path fill="none" stroke="#52606d" d="M243.86,-324.27C263.18,-311.24 293.64,-290.7 317.14,-274.84"/>
<polygon fill="#52606d" stroke="#52606d" points="319.12,-277.73 325.46,-269.23 315.21,-271.92 319.12,-277.73"/>
<text text-anchor="middle" x="305" y="-290.8" font-family="Times,serif" font-size="14.00">no</text>
</g>
<!-- I -->
<g id="node9" class="node">
<title>I</title>
<path fill="#f7f9fb" stroke="#52606d" d="M219,-196C219,-196 115,-196 115,-196 109,-196 103,-190 103,-184 103,-184 103,-172 103,-172 103,-166 109,-160 115,-160 115,-160 219,-160 219,-160 225,-160 231,-166 231,-172 231,-172 231,-184 231,-184 231,-190 225,-196 219,-196"/>
<text text-anchor="middle" x="167" y="-174.3" font-family="Arial" font-size="14.00">Store appointment</text>
</g>
<!-- H&#45;&gt;I -->
<g id="edge11" class="edge">
<title>H&#45;&gt;I</title>
<path fill="none" stroke="#52606d" d="M167,-232.81C167,-224.79 167,-215.05 167,-206.07"/>
<polygon fill="#52606d" stroke="#52606d" points="170.5,-206.03 167,-196.03 163.5,-206.03 170.5,-206.03"/>
</g>
<!-- J -->
<g id="node10" class="node">
<title>J</title>
<path fill="#f7f9fb" stroke="#52606d" d="M155.25,-120.57C155.25,-120.57 91.61,-107.43 91.61,-107.43 85.74,-106.21 85.74,-103.79 91.61,-102.57 91.61,-102.57 155.25,-89.43 155.25,-89.43 161.12,-88.21 172.88,-88.21 178.75,-89.43 178.75,-89.43 242.39,-102.57 242.39,-102.57 248.26,-103.79 248.26,-106.21 242.39,-107.43 242.39,-107.43 178.75,-120.57 178.75,-120.57 172.88,-121.79 161.12,-121.79 155.25,-120.57"/>
<text text-anchor="middle" x="167" y="-101.3" font-family="Arial" font-size="14.00">Later action?</text>
</g>
<!-- I&#45;&gt;J -->
<g id="edge12" class="edge">
<title>I&#45;&gt;J</title>
<path fill="none" stroke="#52606d" d="M167,-159.81C167,-151.79 167,-142.05 167,-133.07"/>
<polygon fill="#52606d" stroke="#52606d" points="170.5,-133.03 167,-123.03 163.5,-133.03 170.5,-133.03"/>
</g>
<!-- K -->
<g id="node11" class="node">
<title>K</title>
<path fill="#f7f9fb" stroke="#52606d" d="M88,-36C88,-36 12,-36 12,-36 6,-36 0,-30 0,-24 0,-24 0,-12 0,-12 0,-6 6,0 12,0 12,0 88,0 88,0 94,0 100,-6 100,-12 100,-12 100,-24 100,-24 100,-30 94,-36 88,-36"/>
<text text-anchor="middle" x="50" y="-14.3" font-family="Arial" font-size="14.00">CONFIRMED</text>
</g>
<!-- J&#45;&gt;K -->
<g id="edge13" class="edge">
<title>J&#45;&gt;K</title>
<path fill="none" stroke="#52606d" d="M144,-91.61C132.84,-85.28 119.41,-77.2 108,-69 96.93,-61.04 85.42,-51.43 75.6,-42.77"/>
<polygon fill="#52606d" stroke="#52606d" points="77.91,-40.14 68.12,-36.08 73.24,-45.36 77.91,-40.14"/>
<text text-anchor="middle" x="135.5" y="-57.8" font-family="Times,serif" font-size="14.00">confirm</text>
</g>
<!-- L -->
<g id="node12" class="node">
<title>L</title>
<path fill="#f7f9fb" stroke="#52606d" d="M204,-36C204,-36 130,-36 130,-36 124,-36 118,-30 118,-24 118,-24 118,-12 118,-12 118,-6 124,0 130,0 130,0 204,0 204,0 210,0 216,-6 216,-12 216,-12 216,-24 216,-24 216,-30 210,-36 204,-36"/>
<text text-anchor="middle" x="167" y="-14.3" font-family="Arial" font-size="14.00">CANCELLED</text>
</g>
<!-- J&#45;&gt;L -->
<g id="edge14" class="edge">
<title>J&#45;&gt;L</title>
<path fill="none" stroke="#52606d" d="M167,-86.8C167,-75.16 167,-59.55 167,-46.24"/>
<polygon fill="#52606d" stroke="#52606d" points="170.5,-46.18 167,-36.18 163.5,-46.18 170.5,-46.18"/>
<text text-anchor="middle" x="190" y="-57.8" font-family="Times,serif" font-size="14.00">cancel</text>
</g>
<!-- M -->
<g id="node13" class="node">
<title>M</title>
<path fill="#f7f9fb" stroke="#52606d" d="M324,-36C324,-36 246,-36 246,-36 240,-36 234,-30 234,-24 234,-24 234,-12 234,-12 234,-6 240,0 246,0 246,0 324,0 324,0 330,0 336,-6 336,-12 336,-12 336,-24 336,-24 336,-30 330,-36 324,-36"/>
<text text-anchor="middle" x="285" y="-14.3" font-family="Arial" font-size="14.00">COMPLETED</text>
</g>
<!-- J&#45;&gt;M -->
<g id="edge15" class="edge">
<title>J&#45;&gt;M</title>
<path fill="none" stroke="#52606d" d="M186.07,-90.81C195.42,-84.29 206.84,-76.29 217,-69 229.17,-60.27 242.46,-50.54 254.03,-42"/>
<polygon fill="#52606d" stroke="#52606d" points="256.16,-44.79 262.12,-36.03 252,-39.16 256.16,-44.79"/>
<text text-anchor="middle" x="271" y="-57.8" font-family="Times,serif" font-size="14.00">complete</text>
</g>
</g>
</svg>
