<?xml version="1.0" encoding="UTF-8" standalone="no"?>
<!DOCTYPE svg PUBLIC "-//W3C//DTD SVG 1.1//EN"
 "http://www.w3.org/Graphics/SVG/1.1/DTD/svg11.dtd">
<!-- Generated by graphviz version 2.42.4 (0)
 -->
<!-- Title: G Pages: 1 -->
<svg width="633pt" height="44pt"
 viewBox="0.00 0.00 633.00 44.00" xmlns="http://www.w3.org/2000/svg" xmlns:xlink="http://www.w3.org/1999/xlink">
<g id="graph0" class="graph" transform="scale(1 1) rotate(0) translate(4 40)">
<title>G</title>
<polygon fill="white" stroke="transparent" points="-4,4 -4,-40 629,-40 629,4 -4,4"/>
<!-- A -->
<g id="node1" class="node">
<title>A</title>
<path fill="#eef3f8" stroke="#52606d" d="M67,-36C67,-36 12,-36 12,-36 6,-36 0,-30 0,-24 0,-24 0,-12 0,-12 0,-6 6,0 12,0 12,0 67,0 67,0 73,0 79,-6 79,-12 79,-12 79,-24 79,-24 79,-30 73,-36 67,-36"/>
<text text-anchor="middle" x="39.5" y="-14.3" font-family="Arial" font-size="14.00">User Input</text>
</g>
<!-- B -->
<g id="node2" class="node">
<title>B</title>
<path fill="#eef3f8" stroke="#52606d" d="M186,-36C186,-36 127,-36 127,-36 121,-36 115,-30 115,-24 115,-24 115,-12 115,-12 115,-6 121,0 127,0 127,0 186,0 186,0 192,0 198,-6 198,-12 198,-12 198,-24 198,-24 198,-30 192,-36 186,-36"/>
<text text-anchor="middle" x="156.5" y="-14.3" font-family="Arial" font-size="14.00">CLI / Menu</text>
</g>
<!-- A&#45;&gt;B -->
<g id="edge1" class="edge">
<title>A&#45;&gt;B</title>
<path fill="none" stroke="#52606d" d="M79.11,-18C87.28,-18 96.01,-18 104.55,-18"/>
<polygon fill="#52606d" stroke="#52606d" points="104.82,-21.5 114.82,-18 104.82,-14.5 104.82,-21.5"/>
</g>
<!-- C -->
<g id="node3" class="node">
<title>C</title>
<path fill="#eef3f8" stroke="#52606d" d="M284,-36C284,-36 246,-36 246,-36 240,-36 234,-30 234,-24 234,-24 234,-12 234,-12 234,-6 240,0 246,0 246,0 284,0 284,0 290,0 296,-6 296,-12 296,-12 296,-24 296,-24 296,-30 290,-36 284,-36"/>
<text text-anchor="middle" x="265" y="-14.3" font-family="Arial" font-size="14.00">Service</text>
</g>
<!-- B&#45;&gt;C -->
<g id="edge2" class="edge">
<title>B&#45;&gt;C</title>
<path fill="none" stroke="#52606d" d="M198.07,-18C206.42,-18 215.21,-18 223.55,-18"/>
<polygon fill="#52606d" stroke="#52606d" points="223.82,-21.5 233.82,-18 223.82,-14.5 223.82,-21.5"/>
</g>
<!-- D -->
<g id="node4" class="node">
<title>D</title>
<path fill="#eef3f8" stroke="#52606d" d="M425,-36C425,-36 344,-36 344,-36 338,-36 332,-30 332,-24 332,-24 332,-12 332,-12 332,-6 338,0 344,0 344,0 425,0 425,0 431,0 437,-6 437,-12 437,-12 437,-24 437,-24 437,-30 431,-36 425,-36"/>
<text text-anchor="middle" x="384.5" y="-14.3" font-family="Arial" font-size="14.00">Entity / Pattern</text>
</g>
<!-- C&#45;&gt;D -->
<g id="edge3" class="edge">
<title>C&#45;&gt;D</title>
<path fill="none" stroke="#52606d" d="M296.26,-18C304.16,-18 312.98,-18 321.88,-18"/>
<polygon fill="#52606d" stroke="#52606d" points="321.92,-21.5 331.92,-18 321.92,-14.5 321.92,-21.5"/>
</g>
<!-- E -->
<g id="node5" class="node">
<title>E</title>
<path fill="#eef3f8" stroke="#52606d" d="M516,-36C516,-36 485,-36 485,-36 479,-36 473,-30 473,-24 473,-24 473,-12 473,-12 473,-6 479,0 485,0 485,0 516,0 516,0 522,0 528,-6 528,-12 528,-12 528,-24 528,-24 528,-30 522,-36 516,-36"/>
<text text-anchor="middle" x="500.5" y="-14.3" font-family="Arial" font-size="14.00">Result</text>
</g>
<!-- D&#45;&gt;E -->
<g id="edge4" class="edge">
<title>D&#45;&gt;E</title>
<path fill="none" stroke="#52606d" d="M437.16,-18C445.77,-18 454.53,-18 462.67,-18"/>
<polygon fill="#52606d" stroke="#52606d" points="462.93,-21.5 472.93,-18 462.93,-14.5 462.93,-21.5"/>
</g>
<!-- F -->
<g id="node6" class="node">
<title>F</title>
<path fill="#eef3f8" stroke="#52606d" d="M613,-36C613,-36 576,-36 576,-36 570,-36 564,-30 564,-24 564,-24 564,-12 564,-12 564,-6 570,0 576,0 576,0 613,0 613,0 619,0 625,-6 625,-12 625,-12 625,-24 625,-24 625,-30 619,-36 613,-36"/>
<text text-anchor="middle" x="594.5" y="-14.3" font-family="Arial" font-size="14.00">Display</text>
</g>
<!-- E&#45;&gt;F -->
<g id="edge5" class="edge">
<title>E&#45;&gt;F</title>
<path fill="none" stroke="#52606d" d="M528.11,-18C536.03,-18 544.9,-18 553.48,-18"/>
<polygon fill="#52606d" stroke="#52606d" points="553.72,-21.5 563.72,-18 553.72,-14.5 553.72,-21.5"/>
</g>
</g>
</svg>
