<?xml version="1.0" encoding="UTF-8" standalone="no"?>
<!DOCTYPE svg PUBLIC "-//W3C//DTD SVG 1.1//EN"
 "http://www.w3.org/Graphics/SVG/1.1/DTD/svg11.dtd">
<!-- Generated by graphviz version 2.42.4 (0)
 -->
<!-- Title: G Pages: 1 -->
<svg width="636pt" height="295pt"
 viewBox="0.00 0.00 636.00 295.00" xmlns="http://www.w3.org/2000/svg" xmlns:xlink="http://www.w3.org/1999/xlink">
<g id="graph0" class="graph" transform="scale(1 1) rotate(0) translate(4 291)">
<title>G</title>
<polygon fill="white" stroke="transparent" points="-4,4 -4,-291 632,-291 632,4 -4,4"/>
<!-- UI -->
<g id="node1" class="node">
<title>UI</title>
<path fill="#eef3f8" stroke="#52606d" d="M354.5,-287C354.5,-287 253.5,-287 253.5,-287 247.5,-287 241.5,-281 241.5,-275 241.5,-275 241.5,-261 241.5,-261 241.5,-255 247.5,-249 253.5,-249 253.5,-249 354.5,-249 354.5,-249 360.5,-249 366.5,-255 366.5,-261 366.5,-261 366.5,-275 366.5,-275 366.5,-281 360.5,-287 354.5,-287"/>
<text text-anchor="middle" x="304" y="-271.8" font-family="Arial" font-size="14.00">Presentation / CLI</text>
<text text-anchor="middle" x="304" y="-256.8" font-family="Arial" font-size="14.00">Main + Menu</text>
</g>
<!-- S -->
<g id="node2" class="node">
<title>S</title>
<path fill="#eef3f8" stroke="#52606d" d="M495,-209C495,-209 113,-209 113,-209 107,-209 101,-203 101,-197 101,-197 101,-183 101,-183 101,-177 107,-171 113,-171 113,-171 495,-171 495,-171 501,-171 507,-177 507,-183 507,-183 507,-197 507,-197 507,-203 501,-209 495,-209"/>
<text text-anchor="middle" x="304" y="-193.8" font-family="Arial" font-size="14.00">Service Layer</text>
<text text-anchor="middle" x="304" y="-178.8" font-family="Arial" font-size="14.00">PatientService | DoctorService | AppointmentService | BillService</text>
</g>
<!-- UI&#45;&gt;S -->
<g id="edge1" class="edge">
<title>UI&#45;&gt;S</title>
<path fill="none" stroke="#52606d" d="M304,-248.99C304,-240.16 304,-229.31 304,-219.4"/>
<polygon fill="#52606d" stroke="#52606d" points="307.5,-219.15 304,-209.15 300.5,-219.15 307.5,-219.15"/>
</g>
<!-- E -->
<g id="node3" class="node">
<title>E</title>
<path fill="#eef3f8" stroke="#52606d" d="M356,-38C356,-38 12,-38 12,-38 6,-38 0,-32 0,-26 0,-26 0,-12 0,-12 0,-6 6,0 12,0 12,0 356,0 356,0 362,0 368,-6 368,-12 368,-12 368,-26 368,-26 368,-32 362,-38 356,-38"/>
<text text-anchor="middle" x="184" y="-22.8" font-family="Arial" font-size="14.00">Entity Layer</text>
<text text-anchor="middle" x="184" y="-7.8" font-family="Arial" font-size="14.00">Person | Patient | Doctor | Appointment | Bill | BillSummary</text>
</g>
<!-- S&#45;&gt;E -->
<g id="edge2" class="edge">
<title>S&#45;&gt;E</title>
<path fill="none" stroke="#52606d" d="M259.66,-170.88C241.76,-161.47 222.44,-148.27 210,-131 192.55,-106.76 186.64,-72.54 184.72,-48.51"/>
<polygon fill="#52606d" stroke="#52606d" points="188.2,-48.04 184.1,-38.27 181.22,-48.46 188.2,-48.04"/>
</g>
<!-- U -->
<g id="node4" class="node">
<title>U</title>
<path fill="#eef3f8" stroke="#52606d" d="M616,-131C616,-131 234,-131 234,-131 228,-131 222,-125 222,-119 222,-119 222,-90 222,-90 222,-84 228,-78 234,-78 234,-78 616,-78 616,-78 622,-78 628,-84 628,-90 628,-90 628,-119 628,-119 628,-125 622,-131 616,-131"/>
<text text-anchor="middle" x="425" y="-115.8" font-family="Arial" font-size="14.00">Utilities &amp; Patterns</text>
<text text-anchor="middle" x="425" y="-100.8" font-family="Arial" font-size="14.00">Validator | DateUtil | CSVUtil | DataStore | IdGenerator | AIHelper</text>
<text text-anchor="middle" x="425" y="-85.8" font-family="Arial" font-size="14.00">Factory | Strategy</text>
</g>
<!-- S&#45;&gt;U -->
<g id="edge3" class="edge">
<title>S&#45;&gt;U</title>
<path fill="none" stroke="#52606d" d="M330.26,-170.88C344.58,-161 362.72,-148.48 379.29,-137.05"/>
<polygon fill="#52606d" stroke="#52606d" points="381.54,-139.75 387.78,-131.19 377.56,-133.99 381.54,-139.75"/>
</g>
<!-- U&#45;&gt;E -->
<g id="edge5" class="edge">
<title>U&#45;&gt;E</title>
<path fill="none" stroke="#52606d" d="M351.38,-77.99C317.64,-66.3 278.08,-52.6 245.9,-41.45"/>
<polygon fill="#52606d" stroke="#52606d" points="246.75,-38.04 236.16,-38.07 244.46,-44.65 246.75,-38.04"/>
</g>
<!-- P -->
<g id="node5" class="node">
<title>P</title>
<path fill="#eef3f8" stroke="#52606d" d="M550.5,-38C550.5,-38 405.5,-38 405.5,-38 399.5,-38 393.5,-32 393.5,-26 393.5,-26 393.5,-12 393.5,-12 393.5,-6 399.5,0 405.5,0 405.5,0 550.5,0 550.5,0 556.5,0 562.5,-6 562.5,-12 562.5,-12 562.5,-26 562.5,-26 562.5,-32 556.5,-38 550.5,-38"/>
<text text-anchor="middle" x="478" y="-22.8" font-family="Arial" font-size="14.00">Persistence</text>
<text text-anchor="middle" x="478" y="-7.8" font-family="Arial" font-size="14.00">CSV files (when enabled)</text>
</g>
<!-- U&#45;&gt;P -->
<g id="edge4" class="edge">
<title>U&#45;&gt;P</title>
<path fill="none" stroke="#52606d" d="M441.19,-77.99C447.44,-68.15 454.59,-56.89 460.92,-46.92"/>
<polygon fill="#52606d" stroke="#52606d" points="464.04,-48.52 466.45,-38.2 458.13,-44.77 464.04,-48.52"/>
</g>
</g>
</svg>
