<?xml version="1.0" encoding="UTF-8" standalone="no"?>
<!DOCTYPE svg PUBLIC "-//W3C//DTD SVG 1.1//EN"
 "http://www.w3.org/Graphics/SVG/1.1/DTD/svg11.dtd">
<!-- Generated by graphviz version 2.42.4 (0)
 -->
<!-- Title: G Pages: 1 -->
<svg width="688pt" height="152pt"
 viewBox="0.00 0.00 688.00 152.00" xmlns="http://www.w3.org/2000/svg" xmlns:xlink="http://www.w3.org/1999/xlink">
<g id="graph0" class="graph" transform="scale(1 1) rotate(0) translate(4 148)">
<title>G</title>
<polygon fill="white" stroke="transparent" points="-4,4 -4,-148 684,-148 684,4 -4,4"/>
<!-- BS -->
<g id="node1" class="node">
<title>BS</title>
<path fill="#f7f9fb" stroke="#52606d" d="M68,-55C68,-55 12,-55 12,-55 6,-55 0,-49 0,-43 0,-43 0,-31 0,-31 0,-25 6,-19 12,-19 12,-19 68,-19 68,-19 74,-19 80,-25 80,-31 80,-31 80,-43 80,-43 80,-49 74,-55 68,-55"/>
<text text-anchor="middle" x="40" y="-33.3" font-family="Arial" font-size="14.00">BillService</text>
</g>
<!-- F -->
<g id="node2" class="node">
<title>F</title>
<path fill="#f7f9fb" stroke="#52606d" d="M276,-90C276,-90 220,-90 220,-90 214,-90 208,-84 208,-78 208,-78 208,-66 208,-66 208,-60 214,-54 220,-54 220,-54 276,-54 276,-54 282,-54 288,-60 288,-66 288,-66 288,-78 288,-78 288,-84 282,-90 276,-90"/>
<text text-anchor="middle" x="248" y="-68.3" font-family="Arial" font-size="14.00">BillFactory</text>
</g>
<!-- BS&#45;&gt;F -->
<g id="edge1" class="edge">
<title>BS&#45;&gt;F</title>
<path fill="none" stroke="#52606d" d="M80.23,-43.67C113.59,-49.33 161.67,-57.5 197.64,-63.61"/>
<polygon fill="#52606d" stroke="#52606d" points="197.47,-67.13 207.91,-65.36 198.64,-60.23 197.47,-67.13"/>
<text text-anchor="middle" x="144" y="-65.8" font-family="Times,serif" font-size="14.00">create/select</text>
</g>
<!-- B -->
<g id="node7" class="node">
<title>B</title>
<path fill="#f7f9fb" stroke="#52606d" d="M263,-36C263,-36 233,-36 233,-36 227,-36 221,-30 221,-24 221,-24 221,-12 221,-12 221,-6 227,0 233,0 233,0 263,0 263,0 269,0 275,-6 275,-12 275,-12 275,-24 275,-24 275,-30 269,-36 263,-36"/>
<text text-anchor="middle" x="248" y="-14.3" font-family="Arial" font-size="14.00">Bill</text>
</g>
<!-- BS&#45;&gt;B -->
<g id="edge6" class="edge">
<title>BS&#45;&gt;B</title>
<path fill="none" stroke="#52606d" d="M80.16,-29.53C86.12,-28.57 92.21,-27.68 98,-27 136.33,-22.49 180.5,-20.19 210.73,-19.04"/>
<polygon fill="#52606d" stroke="#52606d" points="210.94,-22.54 220.81,-18.68 210.69,-15.54 210.94,-22.54"/>
<text text-anchor="middle" x="144" y="-30.8" font-family="Times,serif" font-size="14.00">build bill</text>
</g>
<!-- I -->
<g id="node3" class="node">
<title>I</title>
<path fill="#f7f9fb" stroke="#52606d" d="M469,-91C469,-91 390,-91 390,-91 384,-91 378,-85 378,-79 378,-79 378,-65 378,-65 378,-59 384,-53 390,-53 390,-53 469,-53 469,-53 475,-53 481,-59 481,-65 481,-65 481,-79 481,-79 481,-85 475,-91 469,-91"/>
<text text-anchor="middle" x="429.5" y="-75.8" font-family="Arial" font-size="14.00">BillingStrategy</text>
<text text-anchor="middle" x="429.5" y="-60.8" font-family="Arial" font-size="14.00">&lt;&lt;interface&gt;&gt;</text>
</g>
<!-- F&#45;&gt;I -->
<g id="edge2" class="edge">
<title>F&#45;&gt;I</title>
<path fill="none" stroke="#52606d" d="M288.39,-72C311.62,-72 341.51,-72 367.71,-72"/>
<polygon fill="#52606d" stroke="#52606d" points="367.93,-75.5 377.93,-72 367.93,-68.5 367.93,-75.5"/>
<text text-anchor="middle" x="333" y="-75.8" font-family="Times,serif" font-size="14.00">returns</text>
</g>
<!-- S -->
<g id="node4" class="node">
<title>S</title>
<path fill="#f7f9fb" stroke="#52606d" d="M666,-144C666,-144 532,-144 532,-144 526,-144 520,-138 520,-132 520,-132 520,-120 520,-120 520,-114 526,-108 532,-108 532,-108 666,-108 666,-108 672,-108 678,-114 678,-120 678,-120 678,-132 678,-132 678,-138 672,-144 666,-144"/>
<text text-anchor="middle" x="599" y="-122.3" font-family="Arial" font-size="14.00">StandardBillingStrategy</text>
</g>
<!-- I&#45;&gt;S -->
<g id="edge3" class="edge">
<title>I&#45;&gt;S</title>
<path fill="none" stroke="#52606d" d="M481.21,-88.35C497.23,-93.51 515.17,-99.3 532.09,-104.75"/>
<polygon fill="#52606d" stroke="#52606d" points="531.32,-108.18 541.91,-107.92 533.46,-101.52 531.32,-108.18"/>
</g>
<!-- P -->
<g id="node5" class="node">
<title>P</title>
<path fill="#f7f9fb" stroke="#52606d" d="M666,-90C666,-90 532,-90 532,-90 526,-90 520,-84 520,-78 520,-78 520,-66 520,-66 520,-60 526,-54 532,-54 532,-54 666,-54 666,-54 672,-54 678,-60 678,-66 678,-66 678,-78 678,-78 678,-84 672,-90 666,-90"/>
<text text-anchor="middle" x="599" y="-68.3" font-family="Arial" font-size="14.00">PremiumBillingStrategy</text>
</g>
<!-- I&#45;&gt;P -->
<g id="edge4" class="edge">
<title>I&#45;&gt;P</title>
<path fill="none" stroke="#52606d" d="M481.21,-72C490.29,-72 499.98,-72 509.75,-72"/>
<polygon fill="#52606d" stroke="#52606d" points="509.95,-75.5 519.95,-72 509.95,-68.5 509.95,-75.5"/>
</g>
<!-- Ins -->
<g id="node6" class="node">
<title>Ins</title>
<path fill="#f7f9fb" stroke="#52606d" d="M668,-36C668,-36 530,-36 530,-36 524,-36 518,-30 518,-24 518,-24 518,-12 518,-12 518,-6 524,0 530,0 530,0 668,0 668,0 674,0 680,-6 680,-12 680,-12 680,-24 680,-24 680,-30 674,-36 668,-36"/>
<text text-anchor="middle" x="599" y="-14.3" font-family="Arial" font-size="14.00">InsuranceBillingStrategy</text>
</g>
<!-- I&#45;&gt;Ins -->
<g id="edge5" class="edge">
<title>I&#45;&gt;Ins</title>
<path fill="none" stroke="#52606d" d="M481.21,-55.65C497.23,-50.49 515.17,-44.7 532.09,-39.25"/>
<polygon fill="#52606d" stroke="#52606d" points="533.46,-42.48 541.91,-36.08 531.32,-35.82 533.46,-42.48"/>
</g>
</g>
</svg>
